<svg width="30" height="38" viewBox="0 0 30 38" fill="none" xmlns="http://www.w3.org/2000/svg">
<path d="M15.296 37.0266C15.1835 37.1359 15.0844 37.2314 15 37.3122C14.9156 37.2314 14.8165 37.1359 14.704 37.0266C14.2973 36.6312 13.7152 36.0539 13.0164 35.3284C11.618 33.8766 9.75477 31.8343 7.89279 29.4703C6.02959 27.1047 4.17559 24.427 2.78931 21.7045C1.40001 18.9761 0.5 16.2403 0.5 13.7487C0.5 8.73211 2.90705 5.43951 5.92323 3.38209C8.96117 1.30982 12.6103 0.5 15 0.5C17.3897 0.5 21.0388 1.30982 24.0768 3.38209C27.0929 5.43951 29.5 8.73211 29.5 13.7487C29.5 16.2403 28.6 18.9761 27.2107 21.7045C25.8244 24.427 23.9704 27.1047 22.1072 29.4703C20.2452 31.8343 18.382 33.8766 16.9836 35.3284C16.2848 36.0539 15.7027 36.6312 15.296 37.0266Z" fill="#B1DB08" stroke="#C9EA47"/>
<path d="M15.1758 23.1953C14.1732 23.1953 13.2552 22.9772 12.4219 22.541C11.5885 22.0983 10.9147 21.3659 10.4004 20.3438C9.88607 19.3216 9.62891 17.9805 9.62891 16.3203C9.62891 14.7253 9.85677 13.3548 10.3125 12.209C10.7747 11.0566 11.4323 10.1777 12.2852 9.57227C13.138 8.9668 14.1406 8.66406 15.293 8.66406C16.1784 8.66406 16.9759 8.83659 17.6855 9.18164C18.3952 9.52669 18.9648 10.002 19.3945 10.6074C19.8307 11.2129 20.1042 11.8997 20.2148 12.668H17.6953C17.5651 12.1146 17.2884 11.6751 16.8652 11.3496C16.4486 11.0241 15.9245 10.8646 15.293 10.8711C14.6159 10.8711 14.0365 11.0632 13.5547 11.4473C13.0794 11.8249 12.7181 12.3717 12.4707 13.0879C12.2233 13.804 12.0964 14.6602 12.0898 15.6562H12.2266C12.5911 15.0443 13.0924 14.569 13.7305 14.2305C14.375 13.8854 15.0846 13.7161 15.8594 13.7227C16.6992 13.7227 17.4609 13.918 18.1445 14.3086C18.8281 14.6992 19.3652 15.2461 19.7559 15.9492C20.153 16.6458 20.3516 17.4336 20.3516 18.3125C20.3516 19.2435 20.1367 20.0801 19.707 20.8223C19.2773 21.5579 18.6686 22.1374 17.8809 22.5605C17.0931 22.9837 16.1914 23.1953 15.1758 23.1953ZM12.3633 18.3906C12.3698 18.8789 12.4935 19.3346 12.7344 19.7578C12.9753 20.1745 13.304 20.5098 13.7207 20.7637C14.1439 21.0176 14.6159 21.1445 15.1367 21.1445C15.651 21.1445 16.1165 21.0208 16.5332 20.7734C16.9564 20.526 17.2884 20.194 17.5293 19.7773C17.7702 19.3542 17.8906 18.8854 17.8906 18.3711C17.8906 17.8763 17.7702 17.4206 17.5293 17.0039C17.2949 16.5872 16.9727 16.2585 16.5625 16.0176C16.1523 15.7767 15.6901 15.6562 15.1758 15.6562C14.6549 15.6562 14.1797 15.7799 13.75 16.0273C13.3268 16.2747 12.9915 16.61 12.7441 17.0332C12.4967 17.4499 12.3698 17.9023 12.3633 18.3906Z" fill="white"/>
</svg>
