<svg width="30" height="39" viewBox="0 0 30 39" fill="none" xmlns="http://www.w3.org/2000/svg">
<path d="M15 37.5622C14.9156 37.4814 14.8165 37.3859 14.704 37.2766C14.2973 36.8812 13.7152 36.3039 13.0164 35.5784C11.618 34.1266 9.75477 32.0843 7.89279 29.7203C6.02959 27.3547 4.17559 24.677 2.78931 21.9545C1.40001 19.2261 0.5 16.4903 0.5 13.9987C0.5 8.98211 2.90705 5.68951 5.92323 3.63209C8.96117 1.55982 12.6103 0.75 15 0.75C17.3897 0.75 21.0388 1.55982 24.0768 3.63209C27.0929 5.68951 29.5 8.98211 29.5 13.9987C29.5 16.4903 28.6 19.2261 27.2107 21.9545C25.8244 24.677 23.9704 27.3547 22.1072 29.7203C20.2452 32.0843 18.382 34.1266 16.9836 35.5784C16.2848 36.3039 15.7027 36.8812 15.296 37.2766C15.1835 37.3859 15.0844 37.4814 15 37.5622Z" fill="#8B5CCC" stroke="#7D45CB"/>
<path d="M10.1532 23.25L10.1394 21.4061L15.1325 16.5925C16.5689 15.163 17.3079 14.3204 17.3217 13.1395C17.3079 11.8135 16.272 10.9848 14.8838 10.9848C13.4336 10.9848 12.4943 11.8964 12.4943 13.3329H10.0841C10.0703 10.6533 12.08 8.91298 14.9184 8.91298C17.7982 8.91298 19.7457 10.6395 19.7526 13.0083C19.7457 14.6105 18.9791 15.9019 16.196 18.5262L13.6822 21.0193V21.1229H19.9667V23.25H10.1532Z" fill="white"/>
</svg>
