<svg width="30" height="38" viewBox="0 0 30 38" fill="none" xmlns="http://www.w3.org/2000/svg">
<path d="M15.296 37.0266C15.1835 37.1359 15.0844 37.2314 15 37.3122C14.9156 37.2314 14.8165 37.1359 14.704 37.0266C14.2973 36.6312 13.7152 36.0539 13.0164 35.3284C11.618 33.8766 9.75477 31.8343 7.89279 29.4703C6.02959 27.1047 4.17559 24.427 2.78931 21.7045C1.40001 18.9761 0.5 16.2403 0.5 13.7487C0.5 8.73211 2.90705 5.43951 5.92323 3.38209C8.96117 1.30982 12.6103 0.5 15 0.5C17.3897 0.5 21.0388 1.30982 24.0768 3.38209C27.0929 5.43951 29.5 8.73211 29.5 13.7487C29.5 16.2403 28.6 18.9761 27.2107 21.7045C25.8244 24.427 23.9704 27.1047 22.1072 29.4703C20.2452 31.8343 18.382 33.8766 16.9836 35.3284C16.2848 36.0539 15.7027 36.6312 15.296 37.0266Z" fill="#FFA500" stroke="#BE7B00"/>
<path d="M15.0195 23.1953C14.0885 23.1953 13.2487 23.0228 12.5 22.6777C11.7578 22.3327 11.1686 21.8542 10.7324 21.2422C10.2962 20.6302 10.0651 19.9401 10.0391 19.1719H12.5195C12.5456 19.543 12.6725 19.8783 12.9004 20.1777C13.1283 20.4772 13.4277 20.7148 13.7988 20.8906C14.1699 21.0599 14.5768 21.1445 15.0195 21.1445C15.5404 21.1445 16.0059 21.0273 16.416 20.793C16.8327 20.5521 17.1549 20.2266 17.3828 19.8164C17.6172 19.4062 17.7344 18.944 17.7344 18.4297C17.7344 17.8958 17.6139 17.4173 17.373 16.9941C17.1322 16.571 16.7969 16.2422 16.3672 16.0078C15.9375 15.7734 15.4492 15.6562 14.9023 15.6562C13.7891 15.6562 13.0208 16.0599 12.5977 16.8672H10.2344L11.0938 8.85938H19.4531V10.9883H13.1836L12.7539 14.7383H12.8906C13.1706 14.4193 13.5547 14.1621 14.043 13.9668C14.5312 13.7715 15.0586 13.6706 15.625 13.6641C16.4909 13.6641 17.2721 13.8659 17.9688 14.2695C18.6654 14.6732 19.209 15.2331 19.5996 15.9492C19.9967 16.6589 20.1953 17.4596 20.1953 18.3516C20.1953 19.2826 19.9772 20.1159 19.541 20.8516C19.1048 21.5872 18.4928 22.1634 17.7051 22.5801C16.9173 22.9902 16.0221 23.1953 15.0195 23.1953Z" fill="white"/>
</svg>
