<svg width="30" height="39" viewBox="0 0 30 39" fill="none" xmlns="http://www.w3.org/2000/svg">
<path d="M15 37.5622C14.9156 37.4814 14.8165 37.3859 14.704 37.2766C14.2973 36.8812 13.7152 36.3039 13.0164 35.5784C11.618 34.1266 9.75477 32.0843 7.89279 29.7203C6.02959 27.3547 4.17559 24.677 2.78931 21.9545C1.40001 19.2261 0.5 16.4903 0.5 13.9987C0.5 8.98211 2.90705 5.68951 5.92323 3.63209C8.96117 1.55982 12.6103 0.75 15 0.75C17.3897 0.75 21.0388 1.55982 24.0768 3.63209C27.0929 5.68951 29.5 8.98211 29.5 13.9987C29.5 16.4903 28.6 19.2261 27.2107 21.9545C25.8244 24.677 23.9704 27.3547 22.1072 29.7203C20.2452 32.0843 18.382 34.1266 16.9836 35.5784C16.2848 36.3039 15.7027 36.8812 15.296 37.2766C15.1835 37.3859 15.0844 37.4814 15 37.5622Z" fill="#FF5D02" stroke="#EA5400"/>
<path d="M8.45415 20.6188V18.5884L14.566 9.10635H17.7428V18.5262H19.5937V20.6188H17.7428V23.25H15.3119V20.6188H8.45415ZM11.0577 18.5262H15.3464V11.9931H15.2014L11.0577 18.4157V18.5262Z" fill="white"/>
</svg>
