<svg width="30" height="39" viewBox="0 0 30 39" fill="none" xmlns="http://www.w3.org/2000/svg">
<path d="M15 37.5622C14.9156 37.4814 14.8165 37.3859 14.704 37.2766C14.2973 36.8812 13.7152 36.3039 13.0164 35.5784C11.618 34.1266 9.75477 32.0843 7.89279 29.7203C6.02959 27.3547 4.17559 24.677 2.78931 21.9545C1.40001 19.2261 0.5 16.4903 0.5 13.9987C0.5 8.98211 2.90705 5.68951 5.92323 3.63209C8.96117 1.55982 12.6103 0.75 15 0.75C17.3897 0.75 21.0388 1.55982 24.0768 3.63209C27.0929 5.68951 29.5 8.98211 29.5 13.9987C29.5 16.4903 28.6 19.2261 27.2107 21.9545C25.8244 24.677 23.9704 27.3547 22.1072 29.7203C20.2452 32.0843 18.382 34.1266 16.9836 35.5784C16.2848 36.3039 15.7027 36.8812 15.296 37.2766C15.1835 37.3859 15.0844 37.4814 15 37.5622Z" fill="#FF46CB" stroke="#E91CAF"/>
<path d="M14.9943 23.4434C11.9763 23.4434 9.82163 21.7997 9.75947 19.4102H12.3285C12.3907 20.5566 13.5233 21.3025 14.9874 21.3025C16.5551 21.3025 17.6738 20.4461 17.6738 19.1961C17.6738 17.9185 16.5827 17.0069 14.7388 17.0069H13.4819V15.0456H14.7388C16.2443 15.0456 17.294 14.2099 17.294 12.9738C17.294 11.7859 16.3962 10.9848 15.0219 10.9848C13.689 10.9848 12.5426 11.7307 12.4943 12.9116H10.0495C10.1117 10.5428 12.2664 8.91298 15.0426 8.91298C17.9017 8.91298 19.7595 10.6671 19.7457 12.8287C19.7595 14.424 18.7098 15.5635 17.1559 15.8881V15.9986C19.1586 16.268 20.2912 17.5456 20.2774 19.3273C20.2912 21.7099 18.0537 23.4434 14.9943 23.4434Z" fill="white"/>
</svg>
