<svg width="30" height="38" viewBox="0 0 30 38" fill="none" xmlns="http://www.w3.org/2000/svg">
<path d="M15.296 37.0266C15.1835 37.1359 15.0844 37.2314 15 37.3122C14.9156 37.2314 14.8165 37.1359 14.704 37.0266C14.2973 36.6312 13.7152 36.0539 13.0164 35.3284C11.618 33.8766 9.75477 31.8343 7.89279 29.4703C6.02959 27.1047 4.17559 24.427 2.78931 21.7045C1.40001 18.9761 0.5 16.2403 0.5 13.7487C0.5 8.73211 2.90705 5.43951 5.92323 3.38209C8.96117 1.30982 12.6103 0.5 15 0.5C17.3897 0.5 21.0388 1.30982 24.0768 3.38209C27.0929 5.43951 29.5 8.73211 29.5 13.7487C29.5 16.2403 28.6 18.9761 27.2107 21.7045C25.8244 24.427 23.9704 27.1047 22.1072 29.4703C20.2452 31.8343 18.382 33.8766 16.9836 35.3284C16.2848 36.0539 15.7027 36.6312 15.296 37.0266Z" fill="#F01616" stroke="#A30000"/>
<path d="M16.6582 11.0859V10.9883H9.54883V8.85938H19.2949V11.0273L13.1621 23H10.5254L16.6582 11.0859Z" fill="white"/>
</svg>
