<svg width="30" height="38" viewBox="0 0 30 38" fill="none" xmlns="http://www.w3.org/2000/svg">
<path d="M15.296 37.0266C15.1835 37.1359 15.0844 37.2314 15 37.3122C14.9156 37.2314 14.8165 37.1359 14.704 37.0266C14.2973 36.6312 13.7152 36.0539 13.0164 35.3284C11.618 33.8766 9.75477 31.8343 7.89279 29.4703C6.02959 27.1047 4.17559 24.427 2.78931 21.7045C1.40001 18.9761 0.5 16.2403 0.5 13.7487C0.5 8.73211 2.90705 5.43951 5.92323 3.38209C8.96117 1.30982 12.6103 0.5 15 0.5C17.3897 0.5 21.0388 1.30982 24.0768 3.38209C27.0929 5.43951 29.5 8.73211 29.5 13.7487C29.5 16.2403 28.6 18.9761 27.2107 21.7045C25.8244 24.427 23.9704 27.1047 22.1072 29.4703C20.2452 31.8343 18.382 33.8766 16.9836 35.3284C16.2848 36.0539 15.7027 36.6312 15.296 37.0266Z" fill="#7B420E" stroke="#9D4B00"/>
<path d="M14.8242 8.66406C15.8268 8.66406 16.7448 8.88542 17.5781 9.32812C18.4115 9.76432 19.0885 10.4935 19.6094 11.5156C20.1302 12.5312 20.3906 13.8594 20.3906 15.5C20.3906 17.1081 20.1595 18.4883 19.6973 19.6406C19.235 20.793 18.5775 21.6751 17.7246 22.2871C16.8717 22.8926 15.8659 23.1953 14.707 23.1953C13.8151 23.1953 13.0143 23.0228 12.3047 22.6777C11.6016 22.3327 11.0319 21.8542 10.5957 21.2422C10.1595 20.6302 9.88932 19.9336 9.78516 19.1523H12.3047C12.4349 19.7188 12.7083 20.168 13.125 20.5C13.5482 20.8255 14.0755 20.9883 14.707 20.9883C15.3841 20.9883 15.9635 20.7962 16.4453 20.4121C16.9271 20.028 17.2917 19.4746 17.5391 18.752C17.793 18.0228 17.9232 17.1536 17.9297 16.1445H17.7734C17.4154 16.7565 16.9141 17.2383 16.2695 17.5898C15.625 17.9349 14.9154 18.1042 14.1406 18.0977C13.3073 18.0977 12.5488 17.9023 11.8652 17.5117C11.1816 17.1211 10.6413 16.5775 10.2441 15.8809C9.84701 15.1777 9.64844 14.3867 9.64844 13.5078C9.64844 12.5964 9.86328 11.7728 10.293 11.0371C10.7292 10.2949 11.3379 9.71549 12.1191 9.29883C12.9069 8.87565 13.8086 8.66406 14.8242 8.66406ZM12.1289 13.4102C12.1289 13.918 12.2428 14.3835 12.4707 14.8066C12.7051 15.2233 13.0273 15.5553 13.4375 15.8027C13.8542 16.0436 14.3229 16.1641 14.8438 16.1641C15.3516 16.1641 15.8171 16.0404 16.2402 15.793C16.6699 15.5456 17.0052 15.2135 17.2461 14.7969C17.4935 14.3802 17.6172 13.931 17.6172 13.4492C17.6172 12.974 17.4967 12.528 17.2559 12.1113C17.0215 11.6882 16.696 11.3496 16.2793 11.0957C15.8626 10.8418 15.3971 10.7148 14.8828 10.7148C14.362 10.7148 13.8932 10.8353 13.4766 11.0762C13.0599 11.3171 12.7311 11.6426 12.4902 12.0527C12.2493 12.4629 12.1289 12.9154 12.1289 13.4102Z" fill="white"/>
</svg>
