<svg width="30" height="38" viewBox="0 0 30 38" fill="none" xmlns="http://www.w3.org/2000/svg">
<path d="M15.296 37.0266C15.1835 37.1359 15.0844 37.2314 15 37.3122C14.9156 37.2314 14.8165 37.1359 14.704 37.0266C14.2973 36.6312 13.7152 36.0539 13.0164 35.3284C11.618 33.8766 9.75477 31.8343 7.89279 29.4703C6.02959 27.1047 4.17559 24.427 2.78931 21.7045C1.40001 18.9761 0.5 16.2403 0.5 13.7487C0.5 8.73211 2.90705 5.43951 5.92323 3.38209C8.96117 1.30982 12.6103 0.5 15 0.5C17.3897 0.5 21.0388 1.30982 24.0768 3.38209C27.0929 5.43951 29.5 8.73211 29.5 13.7487C29.5 16.2403 28.6 18.9761 27.2107 21.7045C25.8244 24.427 23.9704 27.1047 22.1072 29.4703C20.2452 31.8343 18.382 33.8766 16.9836 35.3284C16.2848 36.0539 15.7027 36.6312 15.296 37.0266Z" fill="#2DAB00" stroke="#5ECA38"/>
<path d="M15 23.1953C13.9648 23.1953 13.0371 23.026 12.2168 22.6875C11.403 22.3424 10.7682 21.8672 10.3125 21.2617C9.85677 20.6562 9.62891 19.9727 9.62891 19.2109C9.62891 18.625 9.75911 18.0781 10.0195 17.5703C10.2865 17.0625 10.651 16.6426 11.1133 16.3105C11.582 15.9785 12.0964 15.7669 12.6562 15.6758V15.5977C12.168 15.4935 11.735 15.2917 11.3574 14.9922C10.9798 14.6927 10.6836 14.3216 10.4688 13.8789C10.2604 13.4362 10.1562 12.9609 10.1562 12.4531C10.1562 11.7305 10.3646 11.0827 10.7812 10.5098C11.2044 9.93034 11.7839 9.47786 12.5195 9.15234C13.2552 8.82682 14.082 8.66406 15 8.66406C15.9115 8.66406 16.735 8.82682 17.4707 9.15234C18.2064 9.47786 18.7826 9.93034 19.1992 10.5098C19.6159 11.0892 19.8242 11.737 19.8242 12.4531C19.8242 12.9609 19.7168 13.4362 19.502 13.8789C19.2936 14.3216 18.9974 14.6927 18.6133 14.9922C18.2357 15.2917 17.806 15.4935 17.3242 15.5977V15.6758C17.8841 15.7669 18.3952 15.9785 18.8574 16.3105C19.3197 16.6426 19.6875 17.0625 19.9609 17.5703C20.2344 18.0781 20.3711 18.625 20.3711 19.2109C20.3711 19.9727 20.14 20.6562 19.6777 21.2617C19.2155 21.8672 18.5775 22.3424 17.7637 22.6875C16.9499 23.026 16.0286 23.1953 15 23.1953ZM12.2461 18.9766C12.2461 19.4128 12.3568 19.7969 12.5781 20.1289C12.806 20.4609 13.1283 20.7214 13.5449 20.9102C13.9616 21.0924 14.4466 21.1836 15 21.1836C15.5469 21.1836 16.0254 21.0924 16.4355 20.9102C16.8522 20.7214 17.1745 20.4609 17.4023 20.1289C17.6367 19.7969 17.7539 19.4128 17.7539 18.9766C17.7539 18.5404 17.6335 18.1465 17.3926 17.7949C17.1582 17.4434 16.8294 17.1699 16.4062 16.9746C15.9896 16.7728 15.5208 16.6719 15 16.6719C14.4792 16.6719 14.0072 16.7695 13.584 16.9648C13.1608 17.1602 12.832 17.4336 12.5977 17.7852C12.3633 18.1367 12.2461 18.5339 12.2461 18.9766ZM12.6367 12.6875C12.6367 13.0977 12.7376 13.4622 12.9395 13.7812C13.1413 14.0938 13.4212 14.3379 13.7793 14.5137C14.1374 14.6895 14.5443 14.7773 15 14.7773C15.4492 14.7773 15.8496 14.6895 16.2012 14.5137C16.5592 14.3379 16.8392 14.0938 17.041 13.7812C17.2428 13.4622 17.3438 13.0977 17.3438 12.6875C17.3438 12.2904 17.2428 11.9388 17.041 11.6328C16.8457 11.3268 16.569 11.0892 16.2109 10.9199C15.8594 10.7441 15.4557 10.6562 15 10.6562C14.5312 10.6562 14.1178 10.7441 13.7598 10.9199C13.4082 11.0892 13.1315 11.3268 12.9297 11.6328C12.7344 11.9388 12.6367 12.2904 12.6367 12.6875Z" fill="white"/>
</svg>
