<svg width="30" height="38" viewBox="0 0 30 38" fill="none" xmlns="http://www.w3.org/2000/svg">
<path d="M15.296 37.0266C15.1835 37.1359 15.0844 37.2314 15 37.3122C14.9156 37.2314 14.8165 37.1359 14.704 37.0266C14.2973 36.6312 13.7152 36.0539 13.0164 35.3284C11.618 33.8766 9.75477 31.8343 7.89279 29.4703C6.02959 27.1047 4.17559 24.427 2.78931 21.7045C1.40001 18.9761 0.5 16.2403 0.5 13.7487C0.5 8.73211 2.90705 5.43951 5.92323 3.38209C8.96117 1.30982 12.6103 0.5 15 0.5C17.3897 0.5 21.0388 1.30982 24.0768 3.38209C27.0929 5.43951 29.5 8.73211 29.5 13.7487C29.5 16.2403 28.6 18.9761 27.2107 21.7045C25.8244 24.427 23.9704 27.1047 22.1072 29.4703C20.2452 31.8343 18.382 33.8766 16.9836 35.3284C16.2848 36.0539 15.7027 36.6312 15.296 37.0266Z" fill="#00FFFF" stroke="#008A8A"/>
<path d="M10.4375 23H7.87891V11.3398H7.80078L4.5 13.4492V11.125L7.99609 8.85938H10.4375V23ZM19.0898 23.1953C17.957 23.1953 16.9837 22.9121 16.1699 22.3457C15.3561 21.7728 14.7344 20.9427 14.3047 19.8555C13.875 18.7682 13.6602 17.4596 13.6602 15.9297C13.6602 14.4062 13.875 13.1009 14.3047 12.0137C14.7409 10.9199 15.3659 10.0898 16.1797 9.52344C16.9935 8.95052 17.9635 8.66406 19.0898 8.66406C20.2161 8.66406 21.1862 8.95052 22 9.52344C22.8138 10.0898 23.4355 10.9199 23.8652 12.0137C24.3014 13.1009 24.5195 14.4062 24.5195 15.9297C24.5195 17.4596 24.3014 18.7715 23.8652 19.8652C23.4355 20.9525 22.8138 21.7793 22 22.3457C21.1927 22.9121 20.2227 23.1953 19.0898 23.1953ZM16.2188 15.9297C16.2188 17.6029 16.4694 18.8757 16.9707 19.748C17.4785 20.6204 18.1849 21.0599 19.0898 21.0664C19.6823 21.0599 20.1934 20.8646 20.623 20.4805C21.0527 20.0964 21.3815 19.5202 21.6094 18.752C21.8438 17.9837 21.9609 17.043 21.9609 15.9297C21.9609 14.8229 21.8438 13.8854 21.6094 13.1172C21.3815 12.3424 21.0527 11.7598 20.623 11.3691C20.1934 10.9785 19.6823 10.7799 19.0898 10.7734C18.4974 10.7799 17.9863 10.9785 17.5566 11.3691C17.127 11.7598 16.7949 12.3424 16.5605 13.1172C16.3327 13.8854 16.2188 14.8229 16.2188 15.9297Z" fill="white"/>
</svg>
